# xmcd CD database file
# Copyright (C) 1993-1998 Ti Kan
#
# Track frame offsets:
#  225
#  13180
#  33784
#  54303
#  73253
#  88623
#  105860
#  126063
#  142148
#  167592
#
# Disc length: 2415 seconds
#
# Revision: 1
# Processed by: cddbd v1.4b41PL1 Copyright (c) Steve Scherf et al.
# Submitted via: CDWizzard Release:4.35
#
DISCID=7f096c0a
DTITLE=Bill Mott - Dancing With Angels
DYEAR=1900
DGENRE=
TTITLE0=Judgment Day
TTITLE1=Girls' Night Out
TTITLE2=Rainbow Lady
TTITLE3=Price You Must Pay
TTITLE4=Two Timing Baby
TTITLE5=Guitar Billy
TTITLE6=White Boy Bluez
TTITLE7=Party Girl
TTITLE8=This Old Guitar
TTITLE9=Cocaine Katie
EXTD=
EXTT0=
EXTT1=
EXTT2=
EXTT3=
EXTT4=
EXTT5=
EXTT6=
EXTT7=
EXTT8=
EXTT9=
PLAYORDER=
